<?xml version="1.0" standalone="no"?>
<!DOCTYPE svg PUBLIC "-//W3C//DTD SVG 20010904//EN"
 "http://www.w3.org/TR/2001/REC-SVG-20010904/DTD/svg10.dtd">
<svg version="1.0" xmlns="http://www.w3.org/2000/svg"
 width="90.000000pt" height="90.000000pt" viewBox="0 0 90.000000 90.000000"
 preserveAspectRatio="xMidYMid meet">
<metadata>
Created by potrace 1.11, written by Peter Selinger 2001-2013
</metadata>
<g transform="translate(0.000000,90.000000) scale(0.100000,-0.100000)"
fill="#000000" stroke="none">
<path d="M389 811 c-39 -40 -39 -82 1 -123 20 -19 30 -40 30 -59 0 -28 -2 -29
-47 -29 -58 0 -77 -11 -69 -37 5 -14 22 -23 61 -32 l55 -12 0 -108 c0 -94 -3
-112 -20 -134 -43 -55 -132 -44 -176 22 -30 46 -43 103 -23 101 48 -7 41 33
-17 94 l-35 37 -23 -28 c-26 -32 -56 -86 -56 -104 0 -7 9 -9 25 -5 22 6 25 2
31 -31 19 -108 103 -193 226 -228 43 -12 61 -23 76 -47 l19 -30 28 36 c15 20
30 35 32 32 8 -7 96 26 138 52 69 43 105 93 125 175 11 41 14 45 37 41 23 -4
25 -3 19 22 -10 37 -58 104 -75 104 -18 0 -68 -58 -80 -92 -10 -28 -1 -35 33
-29 5 1 6 -12 2 -30 -22 -109 -132 -165 -197 -100 -29 29 -29 31 -29 140 l0
110 55 12 c39 9 56 18 61 32 8 26 -11 37 -68 37 -46 0 -48 1 -48 29 0 19 10
40 30 59 40 41 40 83 1 123 -40 39 -82 39 -122 0z m86 -52 c7 -21 -7 -39 -31
-39 -15 0 -25 26 -18 45 9 22 42 18 49 -6z"/>
</g>
</svg>
