<svg height="512" viewBox="0 0 128 128" width="512" xmlns="http://www.w3.org/2000/svg"><g><g><path d="m106.808 67.12-7.908 13.692h4.859c-.64 9.82-9.015 17.6-21.092 21.538a9.016 9.016 0 0 1 -11.148-5.356 40.625 40.625 0 0 1 -3.019-14.619v-60.375h-9v60.375a40.625 40.625 0 0 1 -3.022 14.619 9.016 9.016 0 0 1 -11.148 5.356c-12.077-3.936-20.452-11.718-21.092-21.538h4.862l-7.908-13.692-7.9 13.692h4.946c.761 16.137 16.549 30.907 37.75 33.943l8.012 6.745 8.017-6.745c21.2-3.036 36.989-17.806 37.75-33.943h4.946z" fill="#3ba9fd"/><g><circle cx="64" cy="15.5" fill="#0093df" r="9"/><circle cx="64" cy="15.5" fill="#eaeaf0" r="3"/></g><path d="m35.25 40.5h57.5v9h-57.5z" fill="#0093df"/></g><g fill="#100619"><path d="m116.226 79.936-7.9-13.69a1.749 1.749 0 0 0 -3.031 0l-7.909 13.69a1.75 1.75 0 0 0 1.514 2.624h2.883c-1.435 7.843-8.63 14.53-19.655 18.126a7.268 7.268 0 0 1 -8.98-4.334 38.557 38.557 0 0 1 -2.9-13.972v-31.13h22.5a1.75 1.75 0 0 0 1.752-1.75v-9a1.75 1.75 0 0 0 -1.75-1.75h-7a1.75 1.75 0 0 0 0 3.5h5.25v5.5h-54v-5.5h40.833a1.75 1.75 0 0 0 0-3.5h-7.583v-14.45c0-.02-.006-.04-.007-.061a10.75 10.75 0 1 0 -12.486 0c0 .021-.007.041-.007.061v14.45h-22.5a1.75 1.75 0 0 0 -1.75 1.75v9a1.75 1.75 0 0 0 1.75 1.75h22.5v5.375a1.75 1.75 0 0 0 3.5 0v-5.375h5.5v31.13a41.982 41.982 0 0 0 3.14 15.247 10.827 10.827 0 0 0 10.047 6.909 10.577 10.577 0 0 0 3.276-.522c13.3-4.338 21.634-12.97 22.293-23.09a1.749 1.749 0 0 0 -1.746-1.864h-1.827l4.876-8.44 4.871 8.44h-1.91a1.75 1.75 0 0 0 -1.749 1.668c-.309 6.586-3.255 13.017-8.519 18.594a1.75 1.75 0 1 0 2.545 2.4c5.408-5.731 8.615-12.324 9.343-19.165h3.32a1.75 1.75 0 0 0 1.516-2.624zm-52.226-71.686a7.25 7.25 0 1 1 -7.25 7.25 7.258 7.258 0 0 1 7.25-7.25zm-2.75 17.63a10.4 10.4 0 0 0 5.5 0v12.87h-5.5z"/><path d="m92.119 105.473a50.141 50.141 0 0 1 -20.348 7.545 1.747 1.747 0 0 0 -.878.393l-6.893 5.801-6.893-5.8a1.747 1.747 0 0 0 -.878-.393c-19.934-2.849-35.518-16.731-36.25-32.29a1.75 1.75 0 0 0 -1.749-1.669h-1.91l4.871-8.44 4.876 8.44h-1.827a1.749 1.749 0 0 0 -1.746 1.864c.659 10.12 8.993 18.752 22.294 23.09a10.771 10.771 0 0 0 13.321-6.385 41.982 41.982 0 0 0 3.141-15.249v-9.63a1.75 1.75 0 0 0 -3.5 0v9.63a38.548 38.548 0 0 1 -2.9 13.973 7.273 7.273 0 0 1 -8.978 4.334c-11.025-3.597-18.22-10.287-19.655-18.127h2.883a1.75 1.75 0 0 0 1.515-2.625l-7.909-13.69a1.749 1.749 0 0 0 -3.031 0l-7.9 13.69a1.75 1.75 0 0 0 1.515 2.625h3.321c1.766 16.387 17.993 30.709 38.622 33.849l7.64 6.43a1.751 1.751 0 0 0 2.254 0l7.64-6.43a53.571 53.571 0 0 0 21.274-8.009 1.75 1.75 0 1 0 -1.922-2.924z"/><path d="m59.5 68.188a1.75 1.75 0 0 0 1.75-1.75v-4.063a1.75 1.75 0 0 0 -3.5 0v4.063a1.75 1.75 0 0 0 1.75 1.75z"/><path d="m68.525 105.233a1.749 1.749 0 0 0 1.328-2.889 13.239 13.239 0 0 1 -2.288-3.8 1.749 1.749 0 1 0 -3.257 1.278 16.742 16.742 0 0 0 2.888 4.8 1.748 1.748 0 0 0 1.329.611z"/><path d="m64 20.25a4.75 4.75 0 1 0 -4.75-4.75 4.756 4.756 0 0 0 4.75 4.75zm0-6a1.25 1.25 0 1 1 -1.25 1.25 1.252 1.252 0 0 1 1.25-1.25z"/></g></g></svg>